<svg width="7" height="27" viewBox="0 0 7 27" fill="none" xmlns="http://www.w3.org/2000/svg">
<g clip-path="url(#clip0_2_444)">
<path d="M3.5 7C5.2875 7 6.75 5.5375 6.75 3.75C6.75 1.9625 5.2875 0.5 3.5 0.5C1.7125 0.5 0.25 1.9625 0.25 3.75C0.25 5.5375 1.7125 7 3.5 7ZM3.5 10.25C1.7125 10.25 0.25 11.7125 0.25 13.5C0.25 15.2875 1.7125 16.75 3.5 16.75C5.2875 16.75 6.75 15.2875 6.75 13.5C6.75 11.7125 5.2875 10.25 3.5 10.25ZM3.5 20C1.7125 20 0.25 21.4625 0.25 23.25C0.25 25.0375 1.7125 26.5 3.5 26.5C5.2875 26.5 6.75 25.0375 6.75 23.25C6.75 21.4625 5.2875 20 3.5 20Z" fill="#888B97"/>
</g>
<defs>
<clipPath id="clip0_2_444">
<rect width="7" height="27" fill="white"/>
</clipPath>
</defs>
</svg>
